# xmcd
# 
# Track frame offsets:
#     150
#     23540
#     47237
#     64725
#     84375
#     109192
#     130190
#     146925
#     167042
#     184065
#     202667
#     218340
#     237845
#     259297
#     279395
#     297092
# 
# Disc length: 4301
# 
# Revision: 0
# Processed by: cddbd v1.5.2PL0 Copyright (c) Steve Scherf et al.
# Submitted via: fre:ac v1.0.27
# 
DISCID=e210cb10
DTITLE=Trio Time - How Beautiful Is Night
DYEAR=0
DGENRE=
TTITLE0=Kerry Dancers
TTITLE1=Little Lulu - Lulu`s Back In Town
TTITLE2=Yesterdays
TTITLE3=Small Talk
TTITLE4=Solar
TTITLE5=How Beautiful Is Night
TTITLE6=Sweet And Lovely
TTITLE7=Nobody Knows The Trouble I`ve Seen
TTITLE8=What Is This Thing Called Love?
TTITLE9=Ask Me Now
TTITLE10=Blues For Holly Ann
TTITLE11=The End Of A Love Affair
TTITLE12=Over The Rainbow
TTITLE13=Beatrice
TTITLE14=Oh, Lady Be Good
TTITLE15=On Green Dolphin Street
EXTD=
EXTT0=
EXTT1=
EXTT2=
EXTT3=
EXTT4=
EXTT5=
EXTT6=
EXTT7=
EXTT8=
EXTT9=
EXTT10=
EXTT11=
EXTT12=
EXTT13=
EXTT14=
EXTT15=
PLAYORDER=
